<svg width="1440" height="1139" viewBox="0 0 1440 1139" fill="none" xmlns="http://www.w3.org/2000/svg">
<g clip-path="url(#clip0_256_153)">
<path d="M1440 0H0.00012207V1139H1440V0Z" fill="#0F0F0F"/>
<g opacity="0.8" filter="url(#filter0_f_256_153)">
<path opacity="0.8" d="M2268.4 -177.79C3030.44 -342.542 2938.34 289.71 3043.97 467.884C3149.59 646.06 3670.64 1152.35 2861.83 1273.33C2053 1394.3 -614.582 887.473 676.252 773.046C1967.09 658.618 1506.35 -13.037 2268.4 -177.79Z" fill="url(#paint0_linear_256_153)"/>
</g>
<g opacity="0.8" filter="url(#filter1_f_256_153)">
<path opacity="0.8" d="M1675.08 -332.209C2222.66 -469.155 1837.94 794.258 1911.22 930.183C1984.49 1066.1 2255.56 1584.63 1675.08 1688.46C1216.47 1770.49 -637.774 1957.01 -637.774 1003.48C-637.774 566.335 -256.691 744.566 393.207 829.464C1043.1 914.362 1127.51 -195.264 1675.08 -332.209Z" fill="url(#paint1_linear_256_153)"/>
</g>
<g opacity="0.85" filter="url(#filter2_f_256_153)">
<path opacity="0.85" d="M1675.08 -332.21C2222.66 -469.156 1837.95 794.258 1911.22 930.183C1984.49 1066.1 2255.57 1584.63 1675.08 1688.46C1216.48 1770.49 -556.603 1455.54 -556.603 502.004C-556.603 64.8585 -446.442 836.321 426.94 836.32C1300.32 836.32 1127.51 -195.265 1675.08 -332.21Z" fill="url(#paint2_linear_256_153)"/>
</g>
</g>
<defs>
<filter id="filter0_f_256_153" x="78.3184" y="-455.867" width="3479.11" height="1998.67" filterUnits="userSpaceOnUse" color-interpolation-filters="sRGB">
<feFlood flood-opacity="0" result="BackgroundImageFix"/>
<feBlend mode="normal" in="SourceGraphic" in2="BackgroundImageFix" result="shape"/>
<feGaussianBlur stdDeviation="125.476" result="effect1_foregroundBlur_256_153"/>
</filter>
<filter id="filter1_f_256_153" x="-955.912" y="-660.709" width="3312.53" height="2738.5" filterUnits="userSpaceOnUse" color-interpolation-filters="sRGB">
<feFlood flood-opacity="0" result="BackgroundImageFix"/>
<feBlend mode="normal" in="SourceGraphic" in2="BackgroundImageFix" result="shape"/>
<feGaussianBlur stdDeviation="159.069" result="effect1_foregroundBlur_256_153"/>
</filter>
<filter id="filter2_f_256_153" x="-874.741" y="-660.71" width="3231.36" height="2679.77" filterUnits="userSpaceOnUse" color-interpolation-filters="sRGB">
<feFlood flood-opacity="0" result="BackgroundImageFix"/>
<feBlend mode="normal" in="SourceGraphic" in2="BackgroundImageFix" result="shape"/>
<feGaussianBlur stdDeviation="159.069" result="effect1_foregroundBlur_256_153"/>
</filter>
<linearGradient id="paint0_linear_256_153" x1="3523.78" y1="-281.607" x2="1188.26" y2="591.128" gradientUnits="userSpaceOnUse">
<stop stop-color="#00305C"/>
<stop offset="1" stop-color="#40137A"/>
</linearGradient>
<linearGradient id="paint1_linear_256_153" x1="2359.24" y1="374.922" x2="-306.907" y2="712.919" gradientUnits="userSpaceOnUse">
<stop offset="0.03125" stop-color="#00315F"/>
<stop offset="0.631749" stop-color="#40137A"/>
<stop offset="0.941677" stop-color="#7A1363"/>
</linearGradient>
<linearGradient id="paint2_linear_256_153" x1="2354.5" y1="179.284" x2="-757.961" y2="848.426" gradientUnits="userSpaceOnUse">
<stop offset="0.03125" stop-color="#00315F"/>
<stop offset="0.546278" stop-color="#40137A"/>
<stop offset="0.941677" stop-color="#7A1363"/>
</linearGradient>
<clipPath id="clip0_256_153">
<rect width="1440" height="1139" fill="white"/>
</clipPath>
</defs>
</svg>
